<svg width="20" height="20" viewBox="0 0 20 20" fill="none" xmlns="http://www.w3.org/2000/svg">
<path d="M12.5 3.33464V1.66797M12.5 3.33464V5.0013M12.5 3.33464H8.75M2.5 8.33464V15.8346C2.5 16.2767 2.67559 16.7006 2.98816 17.0131C3.30072 17.3257 3.72464 17.5013 4.16667 17.5013H15.8333C16.2754 17.5013 16.6993 17.3257 17.0118 17.0131C17.3244 16.7006 17.5 16.2767 17.5 15.8346V8.33464M2.5 8.33464H17.5M2.5 8.33464V5.0013C2.5 4.55927 2.67559 4.13535 2.98816 3.82279C3.30072 3.51023 3.72464 3.33464 4.16667 3.33464H5.83333M17.5 8.33464V5.0013C17.5 4.55927 17.3244 4.13535 17.0118 3.82279C16.6993 3.51023 16.2754 3.33464 15.8333 3.33464H15.4167M5.83333 1.66797V5.0013" stroke="#FDFDFD" stroke-linecap="round" stroke-linejoin="round"/>
</svg>
