<svg width="20" height="20" viewBox="0 0 20 20" fill="none" xmlns="http://www.w3.org/2000/svg">
<path d="M2.83203 10.3354C2.83203 13.4779 2.83203 16.7163 3.93036 17.6921C5.0287 18.6688 6.79703 18.6688 10.332 18.6688C13.867 18.6688 15.6354 18.6688 16.7337 17.6921C17.832 16.7154 17.832 13.4779 17.832 10.3354" stroke="#EA4300"/>
<path d="M12.55 12.1704L17.715 10.6204C18.0567 10.5179 18.2283 10.4671 18.355 10.3654C18.4657 10.2764 18.5517 10.1605 18.605 10.0288C18.6667 9.87878 18.6667 9.69962 18.6667 9.34212C18.6667 7.93545 18.6667 7.23295 18.3917 6.69628C18.1526 6.22939 17.7727 5.84952 17.3058 5.61045C16.7692 5.33545 16.0667 5.33545 14.66 5.33545H6.00667C4.6 5.33545 3.8975 5.33545 3.36083 5.61045C2.89394 5.84952 2.51407 6.22939 2.275 6.69628C2 7.23295 2 7.93545 2 9.34212C2 9.69962 2 9.87795 2.06083 10.0288C2.11411 10.1605 2.20017 10.2764 2.31083 10.3654C2.43833 10.4671 2.60917 10.5179 2.9525 10.6213L8.11667 12.1704" stroke="#EA4300"/>
<path d="M7.97461 3.66871C8.14678 3.18076 8.46606 2.75824 8.88844 2.45937C9.31083 2.1605 9.81552 2 10.3329 2C10.8504 2 11.3551 2.1605 11.7774 2.45937C12.1998 2.75824 12.5191 3.18076 12.6913 3.66871M11.9996 10.752H8.66628C8.55577 10.752 8.44979 10.7959 8.37165 10.8741C8.29351 10.9522 8.24961 11.0582 8.24961 11.1687V12.9704C8.24963 13.0536 8.27456 13.1349 8.3212 13.2038C8.36783 13.2727 8.43404 13.3261 8.51128 13.357L9.09461 13.5904C9.88953 13.9085 10.7764 13.9085 11.5713 13.5904L12.1546 13.357C12.2318 13.3261 12.2981 13.2727 12.3447 13.2038C12.3913 13.1349 12.4163 13.0536 12.4163 12.9704V11.1687C12.4163 11.0582 12.3724 10.9522 12.2942 10.8741C12.2161 10.7959 12.1101 10.752 11.9996 10.752Z" stroke="#EA4300" stroke-linecap="round"/>
</svg>
