<svg width="20" height="20" viewBox="0 0 20 20" fill="none" xmlns="http://www.w3.org/2000/svg">
<path d="M6.57664 16.1098L10.4999 13.7707L14.4231 16.1405L13.3956 11.7085L16.8518 8.75387L12.3058 8.35376L10.4999 4.16799L8.69395 8.32299L4.14796 8.7231L7.60416 11.7085L6.57664 16.1098ZM10.4999 15.2197L5.97881 17.9183C5.84596 17.9831 5.72266 18.0094 5.60891 17.9971C5.49598 17.9839 5.38597 17.9453 5.27886 17.8813C5.17091 17.8157 5.08954 17.7229 5.03474 17.6031C4.97994 17.4833 4.97496 17.3524 5.0198 17.2104L6.22293 12.1505L2.24363 8.74033C2.13153 8.65005 2.05764 8.54212 2.02193 8.41655C1.98623 8.29098 1.99412 8.17074 2.0456 8.05583C2.09708 7.94093 2.16558 7.84655 2.2511 7.77268C2.33745 7.70127 2.4537 7.65285 2.59983 7.62741L7.85077 7.17436L9.89833 2.38288C9.95479 2.24745 10.0362 2.14979 10.1424 2.08987C10.2487 2.02996 10.3679 2 10.4999 2C10.6319 2 10.7515 2.02996 10.8586 2.08987C10.9657 2.14979 11.0467 2.24745 11.1015 2.38288L13.149 7.17436L18.3987 7.62741C18.5457 7.65203 18.6623 7.70086 18.7487 7.77391C18.835 7.84614 18.904 7.94011 18.9554 8.05583C19.0061 8.17074 19.0136 8.29098 18.9779 8.41655C18.9422 8.54212 18.8683 8.65005 18.7562 8.74033L14.7769 12.1505L15.98 17.2104C16.0265 17.3507 16.0219 17.4812 15.9663 17.6019C15.9107 17.7225 15.8289 17.8153 15.7209 17.8801C15.6147 17.9458 15.5046 17.9847 15.3909 17.9971C15.278 18.0094 15.1551 17.9831 15.0222 17.9183L10.4999 15.2197Z" fill="#EA4300"/>
</svg>
