<svg width="19" height="15" viewBox="0 0 19 15" fill="none" xmlns="http://www.w3.org/2000/svg">
<path d="M15.0819 13.5123L17.8968 13.5046L13.5079 4.52921C13.3897 4.28735 13.2031 4.08296 12.9697 3.93982C12.7363 3.79669 12.4657 3.7207 12.1895 3.7207C11.9132 3.7207 11.6427 3.79669 11.4093 3.93982C11.1759 4.08296 10.9892 4.28735 10.8711 4.52921L15.0819 13.5123Z" stroke="#3A3636" stroke-linecap="round" stroke-linejoin="round"/>
<path d="M0.5 13.516H15.143L9.51274 1.57559C9.36117 1.25383 9.12175 0.981919 8.82235 0.791504C8.52294 0.601089 8.17585 0.5 7.82148 0.5C7.46711 0.5 7.12003 0.601089 6.82062 0.791504C6.52121 0.981919 6.28179 1.25383 6.13022 1.57559L0.5 13.516Z" stroke="#3A3636" stroke-linecap="round" stroke-linejoin="round"/>
<path d="M4.07422 6.24609L5.66271 8.44314L7.64833 6.24609L9.23682 8.88255L11.2224 7.12491" stroke="#3A3636" stroke-linecap="round" stroke-linejoin="round"/>
</svg>
