<svg width="20" height="20" viewBox="0 0 20 20" fill="none" xmlns="http://www.w3.org/2000/svg">
<g clip-path="url(#clip0_159_152)">
<path d="M5.83203 15.8333L9.16536 13.75L8.41836 11.7926M13.332 17.5L12.4987 12.5L8.7487 10L11.6654 5" stroke="#EA4300" stroke-width="1.5" stroke-linecap="round" stroke-linejoin="round"/>
<path d="M5.83333 7.5L7.08333 5H11.6667L13.3333 8.33333L15.8333 9.16667M2.5 14.1667C2.83222 15.1289 3.24889 15.6708 3.75 15.7925C8.75 17.0125 12.7267 17.6775 15 18.2317C16.1111 18.5028 16.9444 18.2317 17.5 17.4183" stroke="#EA4300" stroke-width="1.5" stroke-linecap="round" stroke-linejoin="round"/>
<path d="M13.4922 0.486816C12.4641 0.486816 11.6172 1.33369 11.6172 2.36182C11.6172 3.38994 12.4641 4.23682 13.4922 4.23682C14.5203 4.23682 15.3672 3.38994 15.3672 2.36182C15.3672 1.33369 14.5203 0.486816 13.4922 0.486816ZM13.4922 1.73682C13.8441 1.73682 14.1172 2.01057 14.1172 2.36182C14.1172 2.71307 13.8434 2.98682 13.4922 2.98682C13.1409 2.98682 12.8672 2.71307 12.8672 2.36182C12.8672 2.01057 13.1409 1.73682 13.4922 1.73682Z" fill="#EA4300"/>
</g>
<defs>
<clipPath id="clip0_159_152">
<rect width="20" height="20" fill="white"/>
</clipPath>
</defs>
</svg>
